<svg width="20" height="20" viewBox="0 0 20 20" fill="none" xmlns="http://www.w3.org/2000/svg">
<path d="M9.16699 1.66663C13.307 1.66663 16.667 5.02663 16.667 9.16663C16.667 13.3066 13.307 16.6666 9.16699 16.6666C5.02699 16.6666 1.66699 13.3066 1.66699 9.16663C1.66699 5.02663 5.02699 1.66663 9.16699 1.66663ZM9.16699 15C12.3895 15 15.0003 12.3891 15.0003 9.16663C15.0003 5.94329 12.3895 3.33329 9.16699 3.33329C5.94366 3.33329 3.33366 5.94329 3.33366 9.16663C3.33366 12.3891 5.94366 15 9.16699 15ZM14.6783 13.8216L18.5953 17.4158L17.4162 18.595L13.5 15L14.6783 13.8216Z" fill="#182213"/>
</svg>
