<svg width="21" height="20" viewBox="0 0 21 20" fill="none" xmlns="http://www.w3.org/2000/svg">
<g clip-path="url(#clip0_1542_270)">
<path d="M18.8591 6.25001H10.1333L6.07192 0.645172C5.91108 0.376355 5.68321 0.228506 5.38833 0.201624C5.09344 0.174742 4.81196 0.268828 4.54389 0.483882C4.14177 0.913989 4.11497 1.3441 4.46347 1.7742L7.64017 6.25001H1.72909C1.24655 6.25001 0.837737 6.41802 0.502642 6.75404C0.167548 7.09006 0 7.48657 0 7.94356V8.83066C0 9.58334 0.348499 10.0941 1.0455 10.3629L3.41797 17.6613C3.5252 18.0376 3.73966 18.3804 4.06135 18.6895C4.38304 18.9987 4.74494 19.1532 5.14706 19.1532H15.4412C15.8433 19.1532 16.2052 18.9987 16.5269 18.6895C16.8486 18.3804 17.063 18.0376 17.1703 17.6613L19.5427 10.4436C20.2397 10.1747 20.5882 9.66399 20.5882 8.9113V8.0242C20.5882 7.51345 20.4207 7.09006 20.0856 6.75404C19.7505 6.41802 19.3417 6.25001 18.8591 6.25001ZM1.72909 7.94356H8.92693L9.5301 8.75001C9.58372 8.75001 9.61052 8.77689 9.61052 8.83066H1.72909V7.94356ZM15.5216 17.1774V17.2581C15.5216 17.285 15.5082 17.3118 15.4814 17.3387C15.4546 17.3656 15.4412 17.3925 15.4412 17.4194H5.22748C5.17387 17.4194 5.14706 17.3656 5.14706 17.2581L2.93543 10.5242H17.6528L15.5216 17.1774ZM11.0581 8.83066C11.2458 8.50808 11.3396 8.21238 11.3396 7.94356H18.8591V8.83066H11.0581ZM5.9915 15.8871C6.01831 16.0753 6.12554 16.2366 6.31319 16.371C6.50084 16.5054 6.6885 16.5726 6.87615 16.5726H7.03699C7.25146 16.5188 7.4257 16.3844 7.55974 16.1694C7.69378 15.9543 7.72059 15.7393 7.64017 15.5242L6.79573 12.0968C6.74211 11.8817 6.60807 11.707 6.39361 11.5726C6.17915 11.4382 5.96469 11.4113 5.75023 11.4919C5.53577 11.5457 5.36152 11.6801 5.22748 11.8952C5.09344 12.1102 5.06664 12.3118 5.14706 12.5L5.9915 15.8871ZM13.5512 16.5726H13.7121C13.8997 16.5726 14.0874 16.5054 14.275 16.371C14.4627 16.2366 14.5699 16.0753 14.5967 15.8871L15.4412 12.4194C15.4948 12.2043 15.4613 11.9893 15.3406 11.7742C15.22 11.5592 15.0525 11.4382 14.838 11.4113C14.275 11.3038 13.9265 11.5054 13.7925 12.0161L12.9481 15.4436C12.7872 15.9812 12.9883 16.3575 13.5512 16.5726ZM10.2941 16.5726C10.8571 16.5726 11.1386 16.2769 11.1386 15.6855V12.2581C11.1386 11.6936 10.8571 11.4113 10.2941 11.4113C9.73116 11.4113 9.44968 11.6936 9.44968 12.2581V15.6855C9.44968 16.2769 9.73116 16.5726 10.2941 16.5726Z" fill="#182213" stroke="white" stroke-width="0.3"/>
</g>
<defs>
<clipPath id="clip0_1542_270">
<rect width="20.5882" height="20" fill="white"/>
</clipPath>
</defs>
</svg>
